<?xml version="1.0" encoding="UTF-8"?>
<svg id="Layer_1" xmlns="http://www.w3.org/2000/svg" version="1.1" viewBox="0 0 1920 158.67">
  <!-- Generator: Adobe Illustrator 30.1.0, SVG Export Plug-In . SVG Version: 2.1.1 Build 136)  -->
  <defs>
    <style>
      .st0 {
        fill: #fff;
      }

      .st1 {
        fill: #aed500;
      }
    </style>
  </defs>
  <path class="st0" d="M61.2,151.7c-17.39,0-31.17-4.85-41.33-14.55-10.17-9.7-15.25-23.58-15.25-41.63v-33.71c0-18.06,5.08-31.93,15.25-41.63,10.16-9.7,23.94-14.55,41.33-14.55s30.6,4.71,40.03,14.14c9.43,9.43,14.15,22.37,14.15,38.82v1.2h-26.08v-2.01c0-8.29-2.31-15.11-6.92-20.46-4.61-5.35-11.67-8.03-21.17-8.03s-16.72,2.88-22.07,8.63c-5.35,5.75-8.03,13.58-8.03,23.47v34.51c0,9.77,2.67,17.56,8.03,23.37,5.35,5.82,12.71,8.73,22.07,8.73s16.55-2.71,21.17-8.13c4.61-5.42,6.92-12.2,6.92-20.36v-3.61h26.08v2.81c0,16.45-4.72,29.39-14.15,38.82-9.43,9.43-22.77,14.14-40.03,14.14Z"/>
  <path class="st0" d="M112.16,148.89L149.08,8.44h46.15l36.92,140.45h-27.29l-7.63-30.9h-50.16l-7.62,30.9h-27.29ZM153.29,93.51h37.72l-17.06-68.42h-3.61l-17.06,68.42Z"/>
  <path class="st0" d="M287.52,151.7c-17.39,0-31.17-4.85-41.33-14.55-10.17-9.7-15.25-23.58-15.25-41.63v-33.71c0-18.06,5.08-31.93,15.25-41.63,10.16-9.7,23.94-14.55,41.33-14.55s30.6,4.71,40.03,14.14c9.43,9.43,14.15,22.37,14.15,38.82v1.2h-26.08v-2.01c0-8.29-2.31-15.11-6.92-20.46-4.61-5.35-11.67-8.03-21.17-8.03s-16.72,2.88-22.07,8.63c-5.35,5.75-8.03,13.58-8.03,23.47v34.51c0,9.77,2.67,17.56,8.03,23.37,5.35,5.82,12.71,8.73,22.07,8.73s16.55-2.71,21.17-8.13c4.61-5.42,6.92-12.2,6.92-20.36v-3.61h26.08v2.81c0,16.45-4.72,29.39-14.15,38.82-9.43,9.43-22.77,14.14-40.03,14.14Z"/>
  <path class="st0" d="M379.41,148.89V32.52h-40.93V8.44h108.34v24.08h-40.93v116.37h-26.48Z"/>
  <path class="st0" d="M505.41,151.7c-11.51,0-21.37-2.11-29.59-6.32-8.23-4.21-14.51-10.23-18.86-18.06-4.35-7.82-6.52-17.09-6.52-27.79V8.44h26.48v91.89c0,8.56,2.44,15.32,7.32,20.26,4.88,4.95,11.94,7.42,21.17,7.42s16.28-2.47,21.17-7.42c4.88-4.95,7.32-11.7,7.32-20.26V8.44h26.48v91.09c0,10.7-2.18,19.96-6.52,27.79-4.35,7.82-10.63,13.84-18.86,18.06s-18.09,6.32-29.59,6.32Z"/>
  <path class="st0" d="M621.18,151.7c-10.83,0-20.4-1.94-28.69-5.82-8.29-3.88-14.78-9.43-19.46-16.65-4.68-7.22-7.02-15.92-7.02-26.08v-5.62h26.08v5.62c0,8.43,2.61,14.75,7.83,18.96,5.22,4.21,12.3,6.32,21.27,6.32s15.88-1.81,20.36-5.42c4.48-3.61,6.72-8.23,6.72-13.84,0-3.88-1.1-7.02-3.31-9.43-2.21-2.41-5.42-4.38-9.63-5.92-4.21-1.54-9.33-2.97-15.35-4.31l-4.61-1c-9.63-2.14-17.89-4.85-24.78-8.13-6.89-3.28-12.17-7.59-15.85-12.94-3.68-5.35-5.52-12.3-5.52-20.87s2.04-15.88,6.12-21.97c4.08-6.09,9.83-10.77,17.25-14.04,7.42-3.28,16.15-4.92,26.18-4.92s18.96,1.71,26.79,5.12c7.82,3.41,13.98,8.5,18.46,15.25,4.48,6.76,6.72,15.22,6.72,25.38v6.02h-26.08v-6.02c0-5.35-1.04-9.66-3.11-12.94-2.07-3.28-5.05-5.68-8.93-7.22-3.88-1.54-8.5-2.31-13.84-2.31-8.03,0-13.94,1.5-17.76,4.51-3.81,3.01-5.72,7.12-5.72,12.34,0,3.48.9,6.42,2.71,8.83,1.81,2.41,4.51,4.41,8.13,6.02,3.61,1.61,8.23,3.01,13.84,4.21l4.61,1c10.03,2.14,18.76,4.88,26.18,8.23,7.42,3.35,13.21,7.76,17.36,13.24,4.14,5.49,6.22,12.51,6.22,21.07s-2.18,16.09-6.52,22.57c-4.35,6.49-10.5,11.57-18.46,15.25-7.96,3.68-17.36,5.52-28.19,5.52Z"/>
  <path class="st1" d="M733.73,151.7c-17.39,0-31.17-4.85-41.33-14.55-10.17-9.7-15.25-23.58-15.25-41.63v-33.71c0-18.06,5.08-31.93,15.25-41.63,10.16-9.7,23.94-14.55,41.33-14.55s30.6,4.71,40.03,14.14c9.43,9.43,14.15,22.37,14.15,38.82v1.2h-26.08v-2.01c0-8.29-2.31-15.11-6.92-20.46-4.61-5.35-11.67-8.03-21.17-8.03s-16.72,2.88-22.07,8.63c-5.35,5.75-8.03,13.58-8.03,23.47v34.51c0,9.77,2.67,17.56,8.03,23.37,5.35,5.82,12.71,8.73,22.07,8.73s16.55-2.71,21.17-8.13c4.61-5.42,6.92-12.2,6.92-20.36v-3.61h26.08v2.81c0,16.45-4.72,29.39-14.15,38.82-9.43,9.43-22.77,14.14-40.03,14.14Z"/>
  <path class="st1" d="M795.93,148.89V8.44h60.99c8.83,0,16.52,1.54,23.07,4.61,6.55,3.08,11.64,7.42,15.25,13.04,3.61,5.62,5.42,12.24,5.42,19.86v2.41c0,8.43-2.01,15.25-6.02,20.47-4.01,5.22-8.96,9.03-14.85,11.44v3.61c5.35.27,9.5,2.11,12.44,5.52,2.94,3.41,4.41,7.93,4.41,13.54v45.95h-26.48v-42.13c0-3.21-.84-5.82-2.51-7.82-1.67-2.01-4.45-3.01-8.33-3.01h-36.92v52.97h-26.48ZM822.41,71.85h31.7c6.29,0,11.2-1.71,14.75-5.12,3.54-3.41,5.32-7.93,5.32-13.54v-2.01c0-5.62-1.74-10.13-5.22-13.54-3.48-3.41-8.43-5.12-14.85-5.12h-31.7v39.32Z"/>
  <path class="st1" d="M909.09,148.89V8.44h90.29v24.08h-63.8v33.51h58.18v24.08h-58.18v34.71h65.01v24.08h-91.49Z"/>
  <path class="st1" d="M996.96,148.89l36.92-140.45h46.15l36.92,140.45h-27.29l-7.63-30.9h-50.16l-7.62,30.9h-27.29ZM1038.09,93.51h37.72l-17.06-68.42h-3.61l-17.06,68.42Z"/>
  <path class="st1" d="M1139.82,148.89V32.52h-40.93V8.44h108.34v24.08h-40.93v116.37h-26.48Z"/>
  <path class="st1" d="M1211.64,148.89V8.44h26.48v140.45h-26.48Z"/>
  <path class="st1" d="M1277.05,148.89l-35.71-140.45h27.29l29.69,123.39h2.81l29.69-123.39h27.29l-35.71,140.45h-45.34Z"/>
  <path class="st1" d="M1361.32,148.89V8.44h90.29v24.08h-63.8v33.51h58.18v24.08h-58.18v34.71h65.01v24.08h-91.49Z"/>
  <path class="st0" d="M1499.55,150.9l-13.44-11.04L1594.25,6.44l13.44,11.03-108.14,133.42Z"/>
  <path class="st1" d="M1701.19,151.7c-17.39,0-31.17-4.85-41.33-14.55-10.17-9.7-15.25-23.58-15.25-41.63v-33.71c0-18.06,5.08-31.93,15.25-41.63,10.16-9.7,23.94-14.55,41.33-14.55s30.6,4.71,40.03,14.14c9.43,9.43,14.15,22.37,14.15,38.82v1.2h-26.08v-2.01c0-8.29-2.31-15.11-6.92-20.46-4.61-5.35-11.67-8.03-21.17-8.03s-16.72,2.88-22.07,8.63c-5.35,5.75-8.03,13.58-8.03,23.47v34.51c0,9.77,2.67,17.56,8.03,23.37,5.35,5.82,12.71,8.73,22.07,8.73s16.55-2.71,21.17-8.13c4.61-5.42,6.92-12.2,6.92-20.36v-3.61h26.08v2.81c0,16.45-4.72,29.39-14.15,38.82-9.43,9.43-22.77,14.14-40.03,14.14Z"/>
  <path class="st1" d="M1816.75,151.7c-17.39,0-31.17-4.85-41.33-14.55-10.17-9.7-15.25-23.58-15.25-41.63v-33.71c0-18.06,5.08-31.93,15.25-41.63,10.16-9.7,23.94-14.55,41.33-14.55s30.6,4.71,40.03,14.14c9.43,9.43,14.15,22.37,14.15,38.82v1.2h-26.08v-2.01c0-8.29-2.31-15.11-6.92-20.46-4.61-5.35-11.67-8.03-21.17-8.03s-16.72,2.88-22.07,8.63c-5.35,5.75-8.03,13.58-8.03,23.47v34.51c0,9.77,2.67,17.56,8.03,23.37,5.35,5.82,12.71,8.73,22.07,8.73s16.55-2.71,21.17-8.13c4.61-5.42,6.92-12.2,6.92-20.36v-3.61h26.08v2.81c0,16.45-4.72,29.39-14.15,38.82-9.43,9.43-22.77,14.14-40.03,14.14Z"/>
  <path class="st0" d="M1895.61,151.7c-5.35,0-9.87-1.77-13.54-5.32-3.68-3.54-5.52-8.13-5.52-13.74s1.84-10.2,5.52-13.74c3.68-3.54,8.19-5.32,13.54-5.32s10.03,1.77,13.64,5.32c3.61,3.55,5.42,8.13,5.42,13.74s-1.81,10.2-5.42,13.74c-3.61,3.54-8.16,5.32-13.64,5.32Z"/>
</svg>